# xmcd CD database file
# Copyright (C) 1997 Ti Kan
#
# Track frame offsets:
#  150
#  14302
#  25930
#  43737
#  59572
#  71112
#  85982
#  97432
#  109410
#  119425
#
# Disc length: 1758 seconds
#
# Revision: 1
# Processed by: cddbd v1.4b41PL1 Copyright (c) Steve Scherf et al.
# Submitted via: CDWizzard Release:4.31
#
DISCID=9506dc0a
DTITLE=Jimmy Witherspoon - Ain't Nobody's Business
DYEAR=1900
DGENRE=
TTITLE0=I Done Found Out
TTITLE1=Sweet Lovin' Baby
TTITLE2=Ain't Nobody's Business
TTITLE3=No Rollin' Blues
TTITLE4=Big Fine Girl
TTITLE5=Failing By Degrees
TTITLE6=New Orleans Woman
TTITLE7=Fickle Woman
TTITLE8=Have A Ball
TTITLE9=Good Jumpin'
EXTD=
EXTT0=
EXTT1=
EXTT2=
EXTT3=
EXTT4=
EXTT5=
EXTT6=
EXTT7=
EXTT8=
EXTT9=
PLAYORDER=
